<?xml version="1.0" encoding="UTF-8" standalone="no"?>
<!DOCTYPE svg PUBLIC "-//W3C//DTD SVG 1.1//EN" "http://www.w3.org/Graphics/SVG/1.1/DTD/svg11.dtd">
<svg width="100%" height="100%" viewBox="0 0 422 119" version="1.1" xmlns="http://www.w3.org/2000/svg" xmlns:xlink="http://www.w3.org/1999/xlink" xml:space="preserve" xmlns:serif="http://www.serif.com/" style="fill-rule:evenodd;clip-rule:evenodd;stroke-linejoin:round;stroke-miterlimit:2;">
    <rect x="7.742" y="3.415" width="212.136" height="87.559" style="fill:rgb(235,62,66);"/>
    <g transform="matrix(0.910524,0,0,1,212.828,0)">
        <rect x="7.742" y="3.415" width="212.136" height="87.559" style="fill:rgb(139,143,146);"/>
    </g>
    <g transform="matrix(7.52034,0,0,6.4821,-309.631,-189.962)">
        <text x="42.465px" y="40.129px" style="font-family:'ArialMT', 'Arial', sans-serif;font-size:12px;fill:rgb(255,254,254);">i<tspan x="45.995px 49.525px 53.055px 56.585px 63.449px " y="40.129px 40.129px 40.129px 40.129px 40.129px ">llico</tspan></text>
    </g>
    <g transform="matrix(7.52034,0,0,6.4821,-93.5086,-189.962)">
        <text x="42.465px" y="40.129px" style="font-family:'ArialMT', 'Arial', sans-serif;font-size:12px;fill:white;">w<tspan x="52.139px 59.821px " y="40.129px 40.129px ">eb</tspan></text>
    </g>
    <g transform="matrix(0.370846,0,0,0.242735,-4.68419,88.1323)">
        <text x="27.812px" y="106.388px" style="font-family:'ArialMT', 'Arial', sans-serif;font-size:77.785px;fill:rgb(139,143,146);">L<tspan x="110.976px " y="106.388px ">a</tspan></text>
    </g>
    <g transform="matrix(0.370846,0,0,0.242735,78.1035,88.1323)">
        <text x="27.812px" y="106.388px" style="font-family:'ArialMT', 'Arial', sans-serif;font-size:77.785px;fill:rgb(139,143,146);">s<tspan x="109.642px 195.84px 256.058px 342.256px 406.805px 467.024px 553.222px " y="106.388px 106.388px 106.388px 106.388px 106.388px 106.388px 106.388px ">olution</tspan></text>
    </g>
    <g transform="matrix(0.370846,0,0,0.242735,328.947,88.1323)">
        <text x="27.812px" y="106.388px" style="font-family:'ArialMT', 'Arial', sans-serif;font-size:77.785px;fill:rgb(139,143,146);">n<tspan x="114.01px 200.207px " y="106.388px 106.388px ">et</tspan></text>
    </g>
</svg>
