<?xml version="1.0" encoding="UTF-8" standalone="no"?><!DOCTYPE svg PUBLIC "-//W3C//DTD SVG 1.1//EN" "http://www.w3.org/Graphics/SVG/1.1/DTD/svg11.dtd"><svg width="100%" height="100%" viewBox="0 0 132 15" version="1.1" xmlns="http://www.w3.org/2000/svg" xmlns:xlink="http://www.w3.org/1999/xlink" xml:space="preserve" xmlns:serif="http://www.serif.com/" style="fill-rule:evenodd;clip-rule:evenodd;stroke-linejoin:round;stroke-miterlimit:2;"><path id="Combined-Shape" d="M124.003,6.003l-5.503,-5.503l-0.5,-0.5l-13,13l-13,-13l-0.5,0.5l-12.5,12.5l-12.5,-12.5l-0.5,-0.5l-13,13l-13,-13l-0.5,0.5l-12.5,12.5l-12.5,-12.5l-0.5,-0.5l-5.797,5.797l0.01,0.01l-8.203,8.203l0.99,0.99l13,-13l13,13l13,-13l13,13l13,-13l13,13l13,-13l13,13l13,-13l13,13l0.997,-0.997l-7.997,-7.996l0.003,-0.004Zm17.6,-3.606l1.897,-1.897l0.5,-0.5l13,13l13,-13l13,13l12.5,-12.5l0.5,-0.5l13,13l13,-13l13,13l12.5,-12.5l0.5,-0.5l13,13l12.5,-12.5l0.5,-0.5l13,13l12.5,-12.5l0.5,-0.5l13,13l13,-13l13,13l12.5,-12.5l0.5,-0.5l13,13l12.5,-12.5l0.5,-0.5l13,13l12.5,-12.5l0.5,-0.5l13,13l13,-13l13,13l12.5,-12.5l0.5,-0.5l13,13l13,-13l13,13l12.5,-12.5l0.5,-0.5l13,13l13,-13l13,13l12.5,-12.5l0.5,-0.5l13,13l12.5,-12.5l0.5,-0.5l13,13l12.5,-12.5l0.5,-0.5l13,13l13,-13l13,13l12.5,-12.5l0.5,-0.5l13,13l13,-13l13,13l12.5,-12.5l0.5,-0.5l13,13l13,-13l13,13l12.5,-12.5l0.5,-0.5l13,13l13,-13l13,13l12.5,-12.5l0.5,-0.5l13,13l13,-13l13,13l12.5,-12.5l0.5,-0.5l13,13l12.5,-12.5l0.5,-0.5l13,13l12.5,-12.5l0.5,-0.5l13,13l13,-13l13,13l12.5,-12.5l0.5,-0.5l13,13l12.5,-12.5l0.5,-0.5l13,13l12.5,-12.5l0.5,-0.5l13,13l13,-13l13,13l12.5,-12.5l0.5,-0.5l13,13l13,-13l13,13l12.5,-12.5l0.5,-0.5l13,13l13,-13l13,13l12.5,-12.5l0.5,-0.5l13,13l12.5,-12.5l0.5,-0.5l13,13l12.5,-12.5l0.5,-0.5l13,13l13,-13l13,13l12.5,-12.5l0.5,-0.5l13,13l12.5,-12.5l0.5,-0.5l13,13l12.5,-12.5l0.5,-0.5l13,13l13,-13l13,13l12.5,-12.5l0.5,-0.5l13,13l13,-13l13,13l12.5,-12.5l0.5,-0.5l13,13l13,-13l13,13l12.5,-12.5l0.5,-0.5l13,13l12.5,-12.5l0.5,-0.5l13,13l12.5,-12.5l0.5,-0.5l13,13l13,-13l13,13l12.5,-12.5l0.5,-0.5l13,13l12.5,-12.5l0.5,-0.5l13,13l12.5,-12.5l0.5,-0.5l13,13l13,-13l13,13l12.5,-12.5l0.5,-0.5l13,13l13,-13l13,13l12.5,-12.5l0.5,-0.5l13,13l13,-13l13,13l12.5,-12.5l0.5,-0.5l13,13l12.5,-12.5l0.5,-0.5l13,13l12.5,-12.5l0.5,-0.5l13,13l13,-13l13,13l12.5,-12.5l0.5,-0.5l13,13l13,-13l13,13l12.5,-12.5l0.5,-0.5l13,13l13,-13l13,13l12.5,-12.5l0.5,-0.5l13,13l13,-13l13,13l12.5,-12.5l0.5,-0.5l13,13l13,-13l13,13l12.5,-12.5l0.5,-0.5l13,13l12.5,-12.5l0.5,-0.5l13,13l12.5,-12.5l0.5,-0.5l13,13l13,-13l13,13l12.5,-12.5l0.5,-0.5l13,13l12.5,-12.5l0.5,-0.5l13,13l12.5,-12.5l0.5,-0.5l13,13l13,-13l13,13l12.5,-12.5l0.5,-0.5l13,13l13,-13l13,13l12.5,-12.5l0.5,-0.5l13,13l13,-13l13,13l12.5,-12.5l0.5,-0.5l13,13l12.5,-12.5l0.5,-0.5l13,13l12.5,-12.5l0.5,-0.5l13,13l13,-13l13,13l12.5,-12.5l0.5,-0.5l13,13l13,-13l1,1l-14,14l-13,-13l-13,13l-13,-13l-13,13l-13,-13l-13,13l-13,-13l-13,13l-13,-13l-13,13l-13,-13l-13,13l-13,-13l-13,13l-13,-13l-13,13l-13,-13l-13,13l-13,-13l-13,13l-13,-13l-13,13l-13,-13l-13,13l-13,-13l-13,13l-13,-13l-13,13l-13,-13l-13,13l-13,-13l-13,13l-13,-13l-13,13l-13,-13l-13,13l-13,-13l-13,13l-13,-13l-13,13l-13,-13l-13,13l-13,-13l-13,13l-13,-13l-13,13l-13,-13l-13,13l-13,-13l-13,13l-13,-13l-13,13l-13,-13l-13,13l-13,-13l-13,13l-13,-13l-13,13l-13,-13l-13,13l-13,-13l-13,13l-13,-13l-13,13l-13,-13l-13,13l-13,-13l-13,13l-13,-13l-13,13l-13,-13l-13,13l-13,-13l-13,13l-13,-13l-13,13l-13,-13l-13,13l-13,-13l-13,13l-13,-13l-13,13l-13,-13l-13,13l-13,-13l-13,13l-13,-13l-13,13l-13,-13l-13,13l-13,-13l-13,13l-13,-13l-13,13l-13,-13l-13,13l-13,-13l-13,13l-13,-13l-13,13l-13,-13l-13,13l-13,-13l-13,13l-13,-13l-13,13l-13,-13l-13,13l-13,-13l-13,13l-13,-13l-13,13l-13,-13l-13,13l-13,-13l-13,13l-13,-13l-13,13l-13,-13l-13,13l-13,-13l-13,13l-13,-13l-13,13l-13,-13l-13,13l-13,-13l-13,13l-13,-13l-13,13l-13,-13l-13,13l-13,-13l-13,13l-13,-13l-13,13l-13,-13l-13,13l-13,-13l-13,13l-13,-13l-13,13l-13,-13l-13,13l-13,-13l-13,13l-13,-13l-13,13l-13,-13l-13,13l-13,-13l-13,13l-13,-13l-13,13l-13,-13l-13,13l-13,-13l-13,13l-13,-13l-13,13l-13,-13l-13,13l-13,-13l-13,13l-13,-13l-13,13l-13,-13l-13,13l-13,-13l-13,13l-13,-13l-13,13l-13,-13l-13,13l-13,-13l-13,13l-13,-13l-13,13l-13,-13l-13,13l-13,-13l-13,13l-13,-13l-13,13l-13,-13l-1.397,1.397l-1,-1Zm-151.2,0.006l-2.403,-2.403l-0.5,0.5l-12.5,12.5l-13,-13l-0.5,0.5l-12.5,12.5l-13,-13l-0.5,0.5l-12.5,12.5l-12.5,-12.5l-0.5,-0.5l-13,13l-13,-13l-0.5,0.5l-12.5,12.5l-12.5,-12.5l-0.5,-0.5l-13,13l-13,-13l-0.5,0.5l-12.5,12.5l-12.5,-12.5l-0.5,-0.5l-13,13l-13,-13l-0.5,0.5l-12.5,12.5l-13,-13l-0.5,0.5l-12.5,12.5l-13,-13l-0.5,0.5l-12.5,12.5l-12.5,-12.5l-0.5,-0.5l-13,13l-13,-13l-0.5,0.5l-12.5,12.5l-13,-13l-0.5,0.5l-12.5,12.5l-13,-13l-0.5,0.5l-12.5,12.5l-12.5,-12.5l-0.5,-0.5l-13,13l-13,-13l-0.5,0.5l-12.5,12.5l-12.5,-12.5l-0.5,-0.5l-13,13l-13,-13l-0.5,0.5l-12.5,12.5l-12.5,-12.5l-0.5,-0.5l-13,13l-13,-13l-0.5,0.5l-12.5,12.5l-12.5,-12.5l-0.5,-0.5l-13,13l-13,-13l-0.5,0.5l-12.5,12.5l-12.5,-12.5l-0.5,-0.5l-13,13l-13,-13l-0.5,0.5l-12.5,12.5l-13,-13l-0.5,0.5l-12.5,12.5l-13,-13l-0.5,0.5l-12.5,12.5l-12.5,-12.5l-0.5,-0.5l-13,13l-13,-13l-0.5,0.5l-12.5,12.5l-12.5,-12.5l-0.5,-0.5l-13,13l-13,-13l-0.5,0.5l-12.5,12.5l-12.5,-12.5l-0.5,-0.5l-13,13l-13,-13l-0.5,0.5l-12.5,12.5l-13,-13l-0.5,0.5l-12.5,12.5l-13,-13l-0.5,0.5l-12.5,12.5l-12.5,-12.5l-0.5,-0.5l-13,13l-13,-13l-0.5,0.5l-12.5,12.5l-13,-13l-0.5,0.5l-12.5,12.5l-13,-13l-0.5,0.5l-12.5,12.5l-12.5,-12.5l-0.5,-0.5l-13,13l-13,-13l-0.5,0.5l-12.5,12.5l-12.5,-12.5l-0.5,-0.5l-13,13l-13,-13l-0.5,0.5l-12.5,12.5l-12.5,-12.5l-0.5,-0.5l-13,13l-13,-13l-0.5,0.5l-12.5,12.5l-13,-13l-0.5,0.5l-12.5,12.5l-13,-13l-0.5,0.5l-12.5,12.5l-12.5,-12.5l-0.5,-0.5l-13,13l-13,-13l-0.5,0.5l-12.5,12.5l-13,-13l-0.5,0.5l-12.5,12.5l-13,-13l-0.5,0.5l-12.5,12.5l-12.5,-12.5l-0.5,-0.5l-13,13l-13,-13l-0.5,0.5l-12.5,12.5l-12.5,-12.5l-0.5,-0.5l-13,13l-13,-13l-0.5,0.5l-12.5,12.5l-12.5,-12.5l-0.5,-0.5l-13,13l-13,-13l-0.5,0.5l-12.5,12.5l-13,-13l-0.5,0.5l-12.5,12.5l-13,-13l-0.5,0.5l-12.5,12.5l-12.5,-12.5l-0.5,-0.5l-13,13l-13,-13l-0.5,0.5l-12.5,12.5l-13,-13l-0.5,0.5l-12.5,12.5l-13,-13l-0.5,0.5l-12.5,12.5l-12.5,-12.5l-0.5,-0.5l-13,13l-13,-13l-0.5,0.5l-12.5,12.5l-12.5,-12.5l-0.5,-0.5l-13,13l-13,-13l-0.5,0.5l-12.5,12.5l-12.5,-12.5l-0.5,-0.5l-13,13l-13,-13l-0.5,0.5l-12.5,12.5l-12.5,-12.5l-0.5,-0.5l-13,13l-13,-13l-0.5,0.5l-12.5,12.5l-12.5,-12.5l-0.5,-0.5l-13,13l-13,-13l-0.5,0.5l-12.5,12.5l-13,-13l-0.5,0.5l-12.5,12.5l-13,-13l-0.5,0.5l-12.5,12.5l-12.5,-12.5l-0.5,-0.5l-13,13l-13,-13l-0.5,0.5l-12.5,12.5l-12.5,-12.5l-0.5,-0.5l-13,13l-13,-13l-0.5,0.5l-12.5,12.5l-12.5,-12.5l-0.5,-0.5l-13,13l-13,-13l-0.5,0.5l-12.5,12.5l-13,-13l-0.5,0.5l-12.5,12.5l-13,-13l-0.5,0.5l-12.5,12.5l-12.5,-12.5l-0.5,-0.5l-13,13l-13,-13l-0.5,0.5l-12.5,12.5l-13,-13l-0.5,0.5l-12.5,12.5l-13,-13l-0.5,0.5l-12.5,12.5l-12.5,-12.5l-0.5,-0.5l-13,13l-13,-13l-0.5,0.5l-12.5,12.5l-12.5,-12.5l-0.5,-0.5l-13,13l-13,-13l-0.5,0.5l-12.5,12.5l-12.5,-12.5l-0.5,-0.5l-13,13l-13,-13l-0.5,0.5l-12.5,12.5l-13,-13l-1,1l14,14l13,-13l13,13l13,-13l13,13l13,-13l13,13l13,-13l13,13l13,-13l13,13l13,-13l13,13l13,-13l13,13l13,-13l13,13l13,-13l13,13l13,-13l13,13l13,-13l13,13l13,-13l13,13l13,-13l13,13l13,-13l13,13l13,-13l13,13l13,-13l13,13l13,-13l13,13l13,-13l13,13l13,-13l13,13l13,-13l13,13l13,-13l13,13l13,-13l13,13l13,-13l13,13l13,-13l13,13l13,-13l13,13l13,-13l13,13l13,-13l13,13l13,-13l13,13l13,-13l13,13l13,-13l13,13l13,-13l13,13l13,-13l13,13l13,-13l13,13l13,-13l13,13l13,-13l13,13l13,-13l13,13l13,-13l13,13l13,-13l13,13l13,-13l13,13l13,-13l13,13l13,-13l13,13l13,-13l13,13l13,-13l13,13l13,-13l13,13l13,-13l13,13l13,-13l13,13l13,-13l13,13l13,-13l13,13l13,-13l13,13l13,-13l13,13l13,-13l13,13l13,-13l13,13l13,-13l13,13l13,-13l13,13l13,-13l13,13l13,-13l13,13l13,-13l13,13l13,-13l13,13l13,-13l13,13l13,-13l13,13l13,-13l13,13l13,-13l13,13l13,-13l13,13l13,-13l13,13l13,-13l13,13l13,-13l13,13l13,-13l13,13l13,-13l13,13l13,-13l13,13l13,-13l13,13l13,-13l13,13l13,-13l13,13l13,-13l13,13l13,-13l13,13l13,-13l13,13l13,-13l13,13l13,-13l13,13l13,-13l13,13l13,-13l13,13l13,-13l13,13l13,-13l13,13l13,-13l13,13l13,-13l13,13l13,-13l13,13l13,-13l13,13l13,-13l13,13l13,-13l13,13l13,-13l13,13l13,-13l13,13l13,-13l13,13l13,-13l13,13l13,-13l13,13l13,-13l1.403,1.403l1,-1Z" style="fill:#194646;"/></svg>